PathFileType	4	(X/Y/Z)	C:\Users\86182\Documents\cortex\Trimmed_M4_L5.trc
DataRate	CameraRate	NumFrames	NumMarkers	Units	OrigDataRate	OrigDataStartFrame	OrigNumFrames
100.00	100.00	       112	2	mm	100.00	181	       901
Frame#	Time	gripper			box			
		X1	Y1	Z1	X2	Y2	Z2	

181	1.800	277.08136	150.51898	233.18315	278.13699	148.90822	97.33252	
182	1.810	276.84451	150.57864	233.68152	278.06729	148.92557	97.76064	
183	1.820	276.70480	150.62129	234.14764	278.03568	148.93645	98.17078	
184	1.830	276.66541	150.64574	234.58215	278.04556	148.94264	98.56788	
185	1.840	276.72592	150.65182	234.98665	278.10541	148.94356	98.95242	
186	1.850	276.88568	150.63945	235.36292	278.22577	148.93684	99.31862	
187	1.860	277.14294	150.60803	235.71205	278.41037	148.92131	99.66081	
188	1.870	277.48849	150.55803	236.03603	278.64853	148.89977	99.98219	
189	1.880	277.89227	150.49448	236.34389	278.91028	148.87917	100.29828	
190	1.890	278.29413	150.42964	236.65582	279.15350	148.86690	100.63084	
191	1.900	278.62109	150.37975	236.99629	279.35300	148.86450	100.99049	
192	1.910	278.82526	150.35640	237.38019	279.51355	148.86749	101.37019	
193	1.920	278.89917	150.36172	237.80777	279.63187	148.87425	101.76723	
194	1.930	278.84946	150.39352	238.27460	279.66254	148.89171	102.20288	
195	1.940	278.67258	150.45135	238.78094	279.55228	148.92941	102.70361	
196	1.950	278.37271	150.53348	239.32513	279.30371	148.98888	103.26529	
197	1.960	277.99179	150.63007	239.89105	278.98041	149.06160	103.85094	
198	1.970	277.60022	150.72505	240.45200	278.65411	149.13541	104.42296	
199	1.980	277.25888	150.80511	240.98686	278.36905	149.20035	104.96342	
200	1.990	276.99823	150.86499	241.48886	278.14502	149.25081	105.46916	
201	2.000	276.82297	150.90573	241.96115	277.98627	149.28612	105.94278	
202	2.010	276.72220	150.93077	242.41048	277.88522	149.30876	106.39023	
203	2.020	276.67789	150.94331	242.84424	277.82825	149.32175	106.82027	
204	2.030	276.67258	150.94586	243.26926	277.80359	149.32773	107.24193	
205	2.040	276.69278	150.94164	243.69110	277.80515	149.32948	107.66135	
206	2.050	276.72809	150.93507	244.11432	277.82864	149.32976	108.08208	
207	2.060	276.76981	150.93053	244.54182	277.86661	149.33107	108.50714	
208	2.070	276.81161	150.93007	244.97379	277.90942	149.33539	108.93846	
209	2.080	276.85095	150.93291	245.40857	277.94965	149.34357	109.37479	
210	2.090	276.88757	150.93680	245.84505	277.98361	149.35489	109.81287	
211	2.100	276.91916	150.94038	246.28262	278.00989	149.36771	110.25060	
212	2.110	276.94107	150.94359	246.71925	278.02640	149.38046	110.68765	
213	2.120	276.95081	150.94606	247.15152	278.02957	149.39185	111.12372	
214	2.130	276.94955	150.94588	247.57674	278.01651	149.40004	111.55684	
215	2.140	276.93884	150.94096	247.99457	277.98865	149.40248	111.98422	
216	2.150	276.91830	150.93132	248.40701	277.95114	149.39700	112.40440	
217	2.160	276.88660	150.91896	248.81726	277.90778	149.38287	112.81886	
218	2.170	276.84302	150.90521	249.22723	277.85770	149.36073	113.23113	
219	2.180	276.78839	150.88921	249.63676	277.79861	149.33191	113.64366	
220	2.190	276.72638	150.86934	250.04642	277.73196	149.29854	114.05602	
221	2.200	276.66370	150.84576	250.45941	277.66345	149.26361	114.46700	
222	2.210	276.60764	150.82094	250.87897	277.60001	149.23010	114.87750	
223	2.220	276.56210	150.79837	251.30489	277.54767	149.20041	115.29112	
224	2.230	276.52689	150.78073	251.73413	277.51004	149.17636	115.71155	
225	2.240	276.50076	150.76891	252.16434	277.48700	149.15887	116.13962	
226	2.250	276.48318	150.76207	252.59570	277.47516	149.14815	116.57332	
227	2.260	276.47339	150.75797	253.03004	277.47067	149.14377	117.01048	
228	2.270	276.46982	150.75409	253.46857	277.47177	149.14398	117.45013	
229	2.280	276.47015	150.74942	253.91013	277.47836	149.14615	117.89198	
230	2.290	276.47198	150.74448	254.35208	277.48923	149.14897	118.33582	
231	2.300	276.47418	150.74048	254.79295	277.50003	149.15326	118.78101	
232	2.310	276.47733	150.73895	255.23285	277.50507	149.15990	119.22574	
233	2.320	276.48038	150.74115	255.67131	277.50150	149.16835	119.66698	
234	2.330	276.47937	150.74699	256.10623	277.49292	149.17766	120.10158	
235	2.340	276.47171	150.75551	256.53583	277.48495	149.18776	120.52869	
236	2.350	276.45972	150.76608	256.96075	277.47836	149.19875	120.94972	
237	2.360	276.44843	150.77800	257.38361	277.46890	149.20941	121.36536	
238	2.370	276.44171	150.78958	257.80627	277.45374	149.21779	121.77386	
239	2.380	276.44077	150.79924	258.22830	277.43518	149.22290	122.17436	
240	2.390	276.44437	150.80733	258.64832	277.41797	149.22523	122.57083	
241	2.400	276.45078	150.81595	259.06644	277.40479	149.22620	122.97090	
242	2.410	276.45978	150.82658	259.48480	277.39581	149.22731	123.37981	
243	2.420	276.47214	150.83835	259.90564	277.39185	149.22931	123.79689	
244	2.430	276.48730	150.84880	260.32916	277.39426	149.23145	124.21822	
245	2.440	276.50281	150.85626	260.75403	277.40225	149.23264	124.64165	
246	2.450	276.51526	150.86159	261.17987	277.41263	149.23297	125.06857	
247	2.460	276.52258	150.86700	261.60751	277.42319	149.23346	125.50137	
248	2.470	276.52594	150.87396	262.03802	277.43411	149.23479	125.93968	
249	2.480	276.52878	150.88248	262.47211	277.44525	149.23714	126.37975	
250	2.490	276.53354	150.89212	262.90948	277.45447	149.24110	126.81819	
251	2.500	276.53989	150.90315	263.34875	277.45947	149.24763	127.25587	
252	2.510	276.54599	150.91628	263.78827	277.46097	149.25693	127.69557	
253	2.520	276.55045	150.93111	264.22720	277.46216	149.26828	128.13622	
254	2.530	276.55307	150.94537	264.66400	277.46448	149.28058	128.57277	
255	2.540	276.55429	150.95657	265.09589	277.46545	149.29263	129.00153	
256	2.550	276.55392	150.96400	265.52081	277.46124	149.30363	129.42250	
257	2.560	276.55038	150.96901	265.93872	277.45081	149.31352	129.83727	
258	2.570	276.54242	150.97363	266.35077	277.43726	149.32198	130.24725	
259	2.580	276.53195	150.97893	266.75873	277.42438	149.32784	130.65366	
260	2.590	276.52283	150.98447	267.16437	277.41278	149.32994	131.05745	
261	2.600	276.51730	150.98959	267.56964	277.40128	149.32832	131.45938	
262	2.610	276.51532	150.99408	267.97644	277.39005	149.32407	131.86102	
263	2.620	276.51736	150.99739	268.38708	277.38138	149.31865	132.26611	
264	2.630	276.52603	150.99860	268.80286	277.37787	149.31343	132.67894	
265	2.640	276.54254	150.99779	269.22339	277.38058	149.30898	133.10056	
266	2.650	276.56464	150.99687	269.64749	277.38858	149.30536	133.52838	
267	2.660	276.58862	150.99796	270.07465	277.40033	149.30313	133.95943	
268	2.670	276.61194	151.00177	270.50491	277.41455	149.30368	134.39259	
269	2.680	276.63309	151.00832	270.93744	277.42889	149.30766	134.82872	
270	2.690	276.65002	151.01801	271.37152	277.44003	149.31375	135.26923	
271	2.700	276.65933	151.03148	271.80777	277.44659	149.32025	135.71339	
272	2.710	276.65811	151.04909	272.24655	277.45056	149.32759	136.15744	
273	2.720	276.64578	151.07080	272.68750	277.45319	149.33792	136.59814	
274	2.730	276.62256	151.09592	273.13049	277.45273	149.35330	137.03651	
275	2.740	276.58813	151.12265	273.57520	277.44693	149.37425	137.47542	
276	2.750	276.54401	151.14850	274.01953	277.43521	149.39978	137.91432	
277	2.760	276.49438	151.17099	274.46112	277.41711	149.42857	138.34967	
278	2.770	276.44324	151.18823	274.89874	277.39151	149.45950	138.77936	
279	2.780	276.39218	151.19955	275.33243	277.35861	149.49126	139.20433	
280	2.790	276.34268	151.20587	275.76297	277.32193	149.52161	139.62602	
281	2.800	276.29721	151.20869	276.19177	277.28699	149.54771	140.04494	
282	2.810	276.25742	151.20912	276.61957	277.25803	149.56769	140.46191	
283	2.820	276.22342	151.20784	277.04639	277.23651	149.58157	140.87868	
284	2.830	276.19589	151.20575	277.47308	277.22159	149.59099	141.29745	
285	2.840	276.17633	151.20398	277.90143	277.21191	149.59770	141.72005	
286	2.850	276.16531	151.20273	278.33148	277.20715	149.60254	142.14713	
287	2.860	276.16144	151.20038	278.76227	277.20737	149.60529	142.57823	
288	2.870	276.16229	151.19463	279.19370	277.21103	149.60464	143.01225	
289	2.880	276.16617	151.18416	279.62601	277.21558	149.59853	143.44777	
290	2.890	276.17230	151.16901	280.05872	277.21933	149.58603	143.88324	
291	2.900	276.18008	151.15070	280.49103	277.22272	149.56902	144.31723	
292	2.910	276.18884	151.13188	280.92224	277.22546	149.55049	144.74939	
